<svg width="142" height="47" viewBox="0 0 142 47" fill="none" xmlns="http://www.w3.org/2000/svg">
<path d="M37.283 9.28141C36.8019 8.80581 36.8019 8.02407 37.283 7.54299C37.7586 7.06739 38.5403 7.06739 39.0214 7.54299C39.497 8.02407 39.497 8.80581 39.0214 9.28141C38.5403 9.76249 37.7586 9.76249 37.283 9.28141ZM23.0586 37.036C24.212 37.036 25.1468 37.9708 25.1468 39.1243C25.1468 40.2723 24.212 41.2071 23.0586 41.2071C21.9106 41.2071 20.9757 40.2723 20.9757 39.1243C20.9757 37.9708 21.9106 37.036 23.0586 37.036ZM17.6902 39.9006C18.6414 40.8518 18.6414 42.3989 17.6902 43.3501C16.7335 44.3068 15.1919 44.3068 14.2353 43.3501C13.284 42.3989 13.284 40.8518 14.2353 39.9006C15.1919 38.9439 16.7335 38.9439 17.6902 39.9006ZM13.4918 33.0726C14.3063 33.8872 14.3063 35.2047 13.4918 36.0192C12.6772 36.8337 11.3598 36.8337 10.5452 36.0192C9.73067 35.2047 9.73067 33.8872 10.5452 33.0726C11.3598 32.2581 12.6772 32.2581 13.4918 33.0726ZM8.83959 37.7248C9.32066 38.2059 9.32066 38.9822 8.83959 39.4632C8.35852 39.9443 7.58221 39.9443 7.10114 39.4632C6.62007 38.9822 6.62007 38.2059 7.10114 37.7248C7.58221 37.2437 8.35852 37.2437 8.83959 37.7248ZM23.0586 43.618C23.7364 43.618 24.2886 44.1646 24.2886 44.8425C24.2886 45.5204 23.7364 46.0725 23.0586 46.0725C22.3807 46.0725 21.8286 45.5204 21.8286 44.8425C21.8286 44.1646 22.3807 43.618 23.0586 43.618ZM30.8541 38.8947C32.2044 38.8947 33.2977 39.988 33.2977 41.3383C33.2977 42.6831 32.2044 43.7765 30.8541 43.7765C29.5093 43.7765 28.4105 42.6831 28.4105 41.3383C28.4105 39.988 29.5093 38.8947 30.8541 38.8947ZM32.6308 33.0726C33.4454 32.2581 34.7629 32.2581 35.5774 33.0726C36.3919 33.8872 36.3919 35.2047 35.5774 36.0192C34.7629 36.8337 33.4454 36.8337 32.6308 36.0192C31.8163 35.2047 31.8163 33.8872 32.6308 33.0726ZM37.283 37.7248C37.7586 37.2437 38.5403 37.2437 39.0214 37.7248C39.497 38.2059 39.497 38.9822 39.0214 39.4632C38.5403 39.9443 37.7586 39.9443 37.283 39.4632C36.8019 38.9822 36.8019 38.2059 37.283 37.7248ZM7.6697 31.2959C7.6697 32.6462 6.57637 33.7396 5.22609 33.7396C3.88127 33.7396 2.78795 32.6462 2.78795 31.2959C2.78795 29.9511 3.88127 28.8578 5.22609 28.8578C6.57637 28.8578 7.6697 29.9511 7.6697 31.2959ZM9.52841 23.5059C9.52841 24.6539 8.59356 25.5887 7.44555 25.5887C6.29207 25.5887 5.35729 24.6539 5.35729 23.5059C5.35729 22.3524 6.29207 21.4176 7.44555 21.4176C8.59356 21.4176 9.52841 22.3524 9.52841 23.5059ZM2.94644 23.5059C2.94644 24.1837 2.39977 24.7359 1.7219 24.7359C1.03856 24.7359 0.491882 24.1837 0.491882 23.5059C0.491882 22.828 1.03856 22.2758 1.7219 22.2758C2.39977 22.2758 2.94644 22.828 2.94644 23.5059ZM6.66384 18.1321C5.71263 19.0887 4.16552 19.0887 3.2143 18.1321C2.25763 17.1808 2.25763 15.6338 3.2143 14.6825C4.16552 13.7259 5.71263 13.7259 6.66384 14.6825C7.62052 15.6338 7.62052 17.1808 6.66384 18.1321ZM13.4918 13.9336C12.6772 14.7481 11.3598 14.7481 10.5452 13.9336C9.73067 13.1191 9.73067 11.8016 10.5452 10.987C11.3598 10.1725 12.6772 10.1725 13.4918 10.987C14.3063 11.8016 14.3063 13.1191 13.4918 13.9336ZM8.83959 9.28141C8.35852 9.76249 7.58221 9.76249 7.10114 9.28141C6.62007 8.80581 6.62007 8.02407 7.10114 7.54299C7.58221 7.06739 8.35852 7.06739 8.83959 7.54299C9.32066 8.02407 9.32066 8.80581 8.83959 9.28141ZM15.263 8.117C13.9182 8.117 12.8249 7.01819 12.8249 5.67337C12.8249 4.32309 13.9182 3.22974 15.263 3.22974C16.6133 3.22974 17.7066 4.32309 17.7066 5.67337C17.7066 7.01819 16.6133 8.117 15.263 8.117ZM23.0586 9.97022C21.9106 9.97022 20.9757 9.04088 20.9757 7.8874C20.9757 6.73391 21.9106 5.80457 23.0586 5.80457C24.212 5.80457 25.1468 6.73391 25.1468 7.8874C25.1468 9.04088 24.212 9.97022 23.0586 9.97022ZM23.0586 3.39375C22.3807 3.39375 21.8286 2.84161 21.8286 2.16373C21.8286 1.48586 22.3807 0.933716 23.0586 0.933716C23.7364 0.933716 24.2886 1.48586 24.2886 2.16373C24.2886 2.84161 23.7364 3.39375 23.0586 3.39375ZM28.4323 7.11112C27.4757 6.15444 27.4757 4.61282 28.4323 3.65615C29.3836 2.70493 30.9307 2.70493 31.8819 3.65615C32.8386 4.61282 32.8386 6.15444 31.8819 7.11112C30.9307 8.06233 29.3836 8.06233 28.4323 7.11112ZM32.6308 13.9336C31.8163 13.1191 31.8163 11.8016 32.6308 10.987C33.4454 10.1725 34.7629 10.1725 35.5774 10.987C36.3919 11.8016 36.3919 13.1191 35.5774 13.9336C34.7629 14.7481 33.4454 14.7481 32.6308 13.9336Z" fill="#36B8BB"/>
<path d="M141.047 9.43451V12.9168H134.334V32.2417H130.622V12.9168H123.909V9.43451H141.047ZM22.6705 32.9524C20.0519 32.9524 17.8433 32.0613 16.0666 30.2792C14.2845 28.497 13.3934 26.2884 13.3934 23.6589C13.3934 21.024 14.2845 18.8209 16.0666 17.0497C17.8433 15.2784 20.0573 14.3928 22.7032 14.3928C24.8681 14.3928 26.7487 15.0051 28.3449 16.2297C29.9412 17.4542 30.9799 19.0833 31.4609 21.1169H27.8529C27.3937 20.111 26.7049 19.3184 25.7865 18.7389C24.8681 18.1594 23.8294 17.8697 22.6705 17.8697C21.6427 17.8697 20.7024 18.1211 19.8496 18.6241C19.0023 19.127 18.3298 19.8213 17.8378 20.7069C17.3458 21.5925 17.0998 22.582 17.0998 23.6753C17.0998 25.3099 17.6356 26.6875 18.7071 27.8027C19.7731 28.9179 21.096 29.4755 22.6705 29.4755C23.8294 29.4755 24.8626 29.1803 25.7701 28.5899C26.6775 27.9995 27.3718 27.1577 27.8529 26.0643H31.5265C31.0236 28.1417 29.9685 29.809 28.3613 31.0664C26.7541 32.3237 24.8572 32.9524 22.6705 32.9524ZM56.0995 23.7409C56.0995 26.3431 55.2412 28.4915 53.5247 30.1972C51.8081 31.9028 49.6324 32.8212 46.9865 32.9524H43.5096C40.8637 32.8212 38.6825 31.9028 36.9659 30.1972C35.2548 28.4915 34.3966 26.3431 34.3966 23.7409C34.3966 21.1388 35.2548 18.963 36.9823 17.2137C38.7098 15.4643 40.8856 14.524 43.5096 14.3928H46.9865C49.6105 14.524 51.7808 15.4589 53.5083 17.1973C55.2357 18.9357 56.0995 21.1169 56.0995 23.7409ZM37.9664 23.7081C37.9664 25.3263 38.4857 26.6766 39.5244 27.7699C40.5631 28.8633 41.9024 29.4646 43.5424 29.5739V17.7713C41.9024 17.8806 40.5631 18.4929 39.5244 19.6081C38.4857 20.7233 37.9664 22.09 37.9664 23.7081ZM46.9536 29.5739C48.5937 29.4646 49.9275 28.8633 50.9717 27.7699C52.0049 26.6766 52.5243 25.3263 52.5243 23.7081C52.5243 22.09 51.9995 20.7233 50.9553 19.6081C49.9057 18.4929 48.5718 17.8806 46.9536 17.7713V29.5739ZM76.7911 23.7081C76.7911 24.0307 76.7692 24.4407 76.7255 24.9163H62.3644C62.5831 26.3431 63.179 27.4638 64.152 28.2947C65.1196 29.1257 66.3333 29.5411 67.771 29.5411C68.4707 29.5411 69.1267 29.4373 69.739 29.2295C70.3513 29.0218 70.8925 28.7266 71.3626 28.3439C71.8328 27.9613 72.2209 27.4966 72.527 26.9499H76.3647C75.6649 28.8305 74.5497 30.301 73.0191 31.3616C71.4884 32.4221 69.739 32.9524 67.771 32.9524C65.1688 32.9524 63.004 32.0668 61.2656 30.2956C59.5272 28.5243 58.6579 26.3158 58.6579 23.6753C58.6579 21.0294 59.5272 18.8209 61.2656 17.0497C63.004 15.2784 65.1688 14.3928 67.771 14.3928C69.5422 14.3928 71.1166 14.8138 72.4942 15.6557C73.8718 16.4975 74.9324 17.6237 75.6759 19.0341C76.4194 20.4445 76.7911 22.0025 76.7911 23.7081ZM67.771 17.6729C66.4153 17.6729 65.2617 18.0555 64.316 18.8209C63.3648 19.5862 62.7361 20.6358 62.43 21.9697H73.1502C72.9316 21.0732 72.5708 20.3024 72.0678 19.6573C71.5649 19.0122 70.9472 18.5202 70.2146 18.1813C69.4821 17.8423 68.6675 17.6729 67.771 17.6729ZM88.9491 14.3928C90.6985 14.3928 92.2729 14.7919 93.6724 15.5901C95.0719 16.3882 96.1652 17.4979 96.9524 18.9193C97.7396 20.3406 98.1332 21.926 98.1332 23.6753C98.1332 26.3431 97.264 28.5517 95.5255 30.312C93.7871 32.0722 91.595 32.9524 88.9491 32.9524C86.6804 32.9524 84.7233 32.2417 83.0833 30.8204V38.8893H79.4425V23.1287C79.4425 19.1708 82.5312 14.3928 88.9491 14.3928ZM84.5265 27.8191C85.6198 28.9234 87.003 29.4755 88.6703 29.4755C90.3431 29.4755 91.7262 28.9234 92.8195 27.8191C93.9129 26.7149 94.4596 25.3318 94.4596 23.6753C94.4596 22.0135 93.9129 20.6304 92.8195 19.5261C91.7262 18.4218 90.3485 17.8697 88.6921 17.8697C87.5933 17.8697 86.6039 18.1211 85.7073 18.6241C84.8108 19.127 84.1165 19.8213 83.6245 20.7069C83.1325 21.5925 82.8865 22.582 82.8865 23.6753C82.8865 25.3318 83.4331 26.7149 84.5265 27.8191ZM117.589 9.43451H120.29V32.2417H116.578V16.4374L104.617 32.2417H102.009V9.43451H105.759V25.0748L117.589 9.43451Z" fill="#2B2A29"/>
</svg>
